<svg width="132" height="24" viewBox="0 0 132 24" fill="none" xmlns="http://www.w3.org/2000/svg">
<path d="M15.2659 21.4161H9.16498V16.227C9.16498 15.3417 8.72921 14.5245 8.00745 14.007L4.18076 11.3375C3.32282 10.7246 2.79171 9.7304 2.79171 8.66807V2.58008C1.25287 2.58008 0 3.84671 0 5.37211V9.11752C0 10.82 0.817086 12.3999 2.21975 13.3532L5.32468 15.5051C5.96473 15.941 6.38689 16.7037 6.38689 17.5208V24.0038H12.6785C14.0947 24.0038 15.2659 22.8461 15.2659 21.4161Z" fill="#31B261"/>
<path d="M16.0803 10.9113L12.3626 8.30995C11.9268 7.9967 11.6544 7.45191 11.6544 6.92074V0.00195312H5.39012C3.96022 0.00195312 2.78906 1.15963 2.78906 2.60331H8.93083L8.88997 7.30209C8.88997 8.56872 9.50279 9.72639 10.5241 10.4346L13.9014 12.7908C14.7594 13.4037 15.2632 14.3571 15.2632 15.4194V21.4257H15.3858C16.8702 21.4257 18.0686 20.2272 18.0686 18.7426V14.6431C18.0277 13.1449 17.2787 11.7693 16.0803 10.9113Z" fill="#31B261"/>
<path d="M44.802 13.2271C44.802 13.9217 44.693 14.5073 44.5296 15.0521C44.3526 15.6105 44.1075 16.0191 43.767 16.3324C43.4538 16.6048 43.0453 16.7818 42.5959 16.7818C42.1465 16.7818 41.7924 16.6729 41.629 16.4005C41.4247 16.1281 41.3158 15.774 41.2885 15.3654V9.29102H38.1836V16.5094C38.2244 17.3402 38.524 18.0621 39.1232 18.5796C39.7088 19.0972 40.4442 19.3832 41.3021 19.3832C41.8877 19.3832 42.4052 19.3151 42.8546 19.2061C43.3449 19.0291 43.7262 18.7839 44.0666 18.4843C44.3798 18.171 44.6794 17.8033 44.8837 17.422L45.0199 18.3753C45.0607 18.7158 45.3603 18.961 45.7008 18.961H47.9478V9.29102H44.8292V13.2271H44.802Z" fill="white"/>
<path d="M59.384 9.36283C58.6622 8.94062 57.8587 8.73633 56.9735 8.73633C56.1701 8.73633 55.4483 8.87253 54.8355 9.15854C54.2363 9.43093 53.7052 9.78504 53.2149 10.18L53.0651 9.53989C52.9971 9.24026 52.7111 9.02234 52.3979 9.02234H50.2734V23.5681H53.3375V18.0386C53.6916 18.4063 54.1137 18.6787 54.6176 18.8694C55.176 19.0737 55.7207 19.1826 56.3063 19.1826C57.3412 19.1826 58.2673 18.9783 59.098 18.5561C59.9014 18.1339 60.5143 17.5483 60.9636 16.7992C61.413 16.0365 61.6582 15.1103 61.6582 14.0071C61.6582 12.9039 61.4539 11.9642 61.0317 11.1742C60.6641 10.4115 60.0785 9.78504 59.384 9.36283ZM58.0766 15.4781C57.8315 15.9003 57.491 16.1999 57.0689 16.4178C56.6467 16.663 56.1973 16.7583 55.6798 16.7583C55.2985 16.7583 54.9853 16.6902 54.604 16.5813C54.2908 16.4451 54.0457 16.268 53.8005 16.0228C53.5554 15.7777 53.3784 15.5053 53.283 15.1921V12.8086C53.4601 12.4954 53.6643 12.223 53.9095 12.005C54.1546 11.8008 54.3997 11.6237 54.7402 11.5147C55.0806 11.4058 55.4347 11.3377 55.8432 11.3377C56.3335 11.3377 56.7829 11.4466 57.1642 11.6782C57.5455 11.9233 57.8587 12.2638 58.1038 12.6452C58.349 13.0265 58.4443 13.5168 58.4443 14.0616C58.4579 14.62 58.349 15.0695 58.0766 15.4781Z" fill="white"/>
<path d="M77.6053 11.4912L77.4418 9.87044C77.401 9.51633 77.115 9.25755 76.7609 9.25755H74.582V18.9275H77.6597V15.1276C77.6597 14.5692 77.7959 14.0244 78.0819 13.5069C78.3951 12.9893 78.7764 12.5399 79.2939 12.2266C79.8114 11.9134 80.5059 11.8044 81.2549 11.8044V9.18945C81.0098 9.18945 80.3561 9.18945 79.7705 9.32565C78.4768 9.66614 77.8912 10.8919 77.6053 11.4912Z" fill="white"/>
<path d="M34.9955 11.141C34.6142 10.8005 34.1921 10.4873 33.7563 10.2421C33.3069 9.99699 32.8166 9.79269 32.34 9.61564C31.8225 9.43858 31.3323 9.19343 30.8556 8.96189C30.3654 8.71674 29.9841 8.44435 29.6845 8.15833C29.3713 7.84508 29.2351 7.50459 29.2351 7.12324C29.2351 6.56483 29.4394 6.15624 29.8207 5.88385C30.202 5.61146 30.7603 5.46164 31.4412 5.46164C31.9996 5.46164 32.6124 5.5706 33.2388 5.80213C33.8652 6.00643 34.4781 6.29244 35.1045 6.63293V3.45955C34.8594 3.32335 34.5461 3.18716 34.2057 3.03734C33.375 2.72409 32.3128 2.58789 31.0327 2.58789C30.0249 2.62875 29.1398 2.86028 28.3772 3.28249C27.6145 3.7047 27.029 4.24949 26.5796 4.94409C26.1574 5.6387 25.9531 6.46949 25.9531 7.39563C25.9531 8.19919 26.0893 8.85294 26.3753 9.35686C26.6476 9.87441 27.029 10.3647 27.5192 10.7052C27.9686 11.0457 28.4861 11.359 29.0036 11.645C29.5211 11.8901 30.0386 12.1353 30.556 12.2987C30.9782 12.4758 31.3867 12.6392 31.7272 12.8844C32.0677 13.1295 32.3809 13.3338 32.5988 13.6062C32.803 13.8786 32.912 14.1646 32.912 14.5051C32.912 14.9954 32.7758 15.3359 32.5307 15.6083C32.2583 15.8807 31.9451 16.0577 31.5638 16.1667C31.1825 16.2757 30.8012 16.3438 30.3926 16.3438C29.9705 16.3438 29.5892 16.2757 29.1534 16.1667C28.8129 16.0577 27.2196 15.6491 26.0076 14.9273V17.9645C26.3208 18.1415 26.5932 18.2777 26.9064 18.3867C27.5328 18.6591 28.1456 18.8361 28.7993 18.9723C29.453 19.1085 30.0794 19.1494 30.6922 19.1494C31.9042 19.1494 32.9392 18.9451 33.7291 18.4957C34.5598 18.0462 35.1862 17.4878 35.5947 16.766C36.0169 16.0441 36.2484 15.2814 36.2484 14.4506C36.2484 13.6471 36.1395 12.9933 35.908 12.4894C35.6765 11.931 35.3632 11.4815 34.9955 11.141Z" fill="white"/>
<path d="M85.9812 12.1513H92.5042V9.91767H85.9812V5.45042H93.3894V3.2168H83.6797V18.9339H93.689V16.7003H85.9812V12.1513Z" fill="white"/>
<path d="M98.9574 10.0857C98.5761 10.4398 98.1676 10.9846 97.9088 11.5158L97.7726 9.88142C97.7454 9.52731 97.4458 9.25492 97.0917 9.25492H95.5938V18.9249H97.9497V14.6483C97.9497 14.0354 98.0995 13.4634 98.4127 12.9186C98.7259 12.3874 99.1481 11.9516 99.6928 11.6247C100.238 11.2979 100.741 11.1889 101.654 11.1617V9.00977C101.3 9.00977 100.755 9.06424 100.333 9.2413C99.8562 9.43197 99.4068 9.66351 98.9574 10.0857Z" fill="white"/>
<path d="M111.286 9.75601L111.177 10.3961C110.836 9.94668 110.373 9.57895 109.747 9.2657C109.08 8.93883 108.317 8.77539 107.473 8.77539C106.615 8.77539 105.798 8.9933 105.035 9.44275C104.272 9.8922 103.673 10.4915 103.21 11.2678C102.747 12.0305 102.516 12.9158 102.516 13.91C102.516 14.8634 102.734 15.7214 103.183 16.4841C103.619 17.2468 104.218 17.8461 104.94 18.2819C105.675 18.7177 106.465 18.9493 107.336 18.9493C108.344 18.9493 109.216 18.7314 109.91 18.3092C110.482 17.955 110.904 17.5465 111.177 17.0561L111.163 18.745C111.163 19.2898 111.041 19.7528 110.782 20.1614C110.523 20.5564 110.155 20.8696 109.679 21.0739C109.202 21.2919 108.63 21.4008 107.963 21.4008C107.296 21.4008 106.71 21.2646 106.22 21.0058C105.716 20.7471 105.239 20.393 104.763 19.9571L103.374 21.5643C103.768 21.9047 104.177 22.2044 104.613 22.504C105.049 22.8036 105.525 23.0352 106.084 23.1986C106.628 23.362 107.268 23.4438 108.017 23.4438C109.148 23.4438 110.101 23.2395 110.932 22.8173C111.749 22.4087 112.389 21.8503 112.852 21.1284C113.315 20.4202 113.546 19.6303 113.546 18.745V9.18398H111.967C111.626 9.18398 111.34 9.42913 111.286 9.75601ZM111.19 14.8225H111.177C111.041 15.2583 110.823 15.6397 110.537 15.9666C110.237 16.2934 109.883 16.5522 109.461 16.7429C109.039 16.9336 108.562 17.0289 108.031 17.0289C107.445 17.0289 106.901 16.8791 106.424 16.6067C105.947 16.3207 105.566 15.9393 105.294 15.4626C105.021 14.9723 104.885 14.4412 104.885 13.8555C104.885 13.229 105.021 12.6842 105.294 12.2212C105.566 11.7445 105.934 11.3767 106.424 11.118C106.901 10.8592 107.432 10.723 108.031 10.723C108.548 10.723 109.011 10.8047 109.447 10.9954C109.869 11.1724 110.237 11.4312 110.537 11.7309C110.836 12.0441 111.068 12.4118 111.204 12.8613V14.8225H111.19Z" fill="white"/>
<path d="M125.46 11.293C125.024 10.5031 124.384 9.8902 123.594 9.44075C122.791 8.9913 121.851 8.75977 120.775 8.75977C119.727 8.75977 118.787 8.9913 117.956 9.44075C117.126 9.8902 116.499 10.5167 116.023 11.293C115.56 12.083 115.328 12.9546 115.328 13.9352C115.328 15.0112 115.56 15.9373 116.036 16.7136C116.513 17.5036 117.153 18.1029 117.97 18.5251C118.787 18.9473 119.713 19.1516 120.748 19.1516C121.838 19.1516 122.777 18.92 123.594 18.4706C124.398 18.0075 125.024 17.3946 125.46 16.6047C125.896 15.8148 126.127 14.9295 126.127 13.9489C126.127 12.9546 125.896 12.0693 125.46 11.293ZM123.322 15.5968C123.063 16.0871 122.709 16.4685 122.26 16.7545C121.81 17.0405 121.293 17.1903 120.721 17.1903C120.163 17.1903 119.659 17.0405 119.209 16.7545C118.76 16.4685 118.406 16.0735 118.133 15.5968C117.875 15.1065 117.739 14.5617 117.739 13.9489C117.739 13.3632 117.875 12.8184 118.12 12.3281C118.365 11.8378 118.733 11.4428 119.182 11.1568C119.631 10.8572 120.149 10.721 120.721 10.721C121.293 10.721 121.81 10.8708 122.26 11.1568C122.709 11.4428 123.063 11.8378 123.322 12.3145C123.581 12.7912 123.703 13.336 123.703 13.9352C123.703 14.5345 123.567 15.1065 123.322 15.5968Z" fill="white"/>
<path d="M70.5637 14.9025C72.4975 14.5348 72.9469 13.132 72.9469 12.3965C72.9469 11.6474 72.729 10.7894 71.9392 10.0539C71.2038 9.30486 69.8965 8.8418 68.521 8.8418C67.4861 8.8418 66.56 9.08695 65.7293 9.5364C64.8986 9.98585 64.2449 10.6124 63.7275 11.4023C63.21 12.165 62.9648 13.023 62.9648 14.0309C62.9648 15.0387 63.21 15.924 63.6185 16.7276C64.0407 17.5311 64.6535 18.1168 65.4842 18.5526C66.3149 19.0021 67.309 19.2064 68.4938 19.2064C71.5034 19.2064 72.7835 18.0351 72.7835 18.0623L71.9119 16.2373C71.9119 16.2373 70.6318 16.891 69.379 16.891C66.9413 16.891 66.2604 15.5427 66.2332 15.1749C67.7176 15.2294 69.0794 15.1749 70.5637 14.9025ZM65.9881 13.5542C65.9881 13.2546 66.1106 12.8324 66.2332 12.5736C66.4102 12.1922 66.669 11.8926 67.023 11.6883C67.3635 11.484 67.772 11.3751 68.2214 11.3751C68.7934 11.3751 69.2156 11.5521 69.5424 11.7836C69.9782 12.1241 70.0871 12.4919 70.0871 12.7098C70.0871 12.9005 69.9645 13.1456 69.3654 13.309C69.093 13.3908 68.4393 13.4589 67.9491 13.4997C67.2273 13.5542 66.4102 13.5678 65.9881 13.5542Z" fill="white"/>
<path d="M126.131 5.74023H128.16V6.3122H127.425V8.76346H126.825V6.3122H126.117V5.74023H126.131Z" fill="white"/>
<path d="M128.73 8.76492V5.61914L130.406 8.00231L130.147 7.94784L131.822 5.61914H131.835V8.76492H131.236V6.96733L131.277 7.28055L130.256 8.73769H130.242L129.193 7.28055L129.302 6.99457V8.76492H128.73Z" fill="white"/>
</svg>
